<?xml version="1.0" standalone="no"?>
<!DOCTYPE svg PUBLIC "-//W3C//DTD SVG 20010904//EN"
 "http://www.w3.org/TR/2001/REC-SVG-20010904/DTD/svg10.dtd">
<svg version="1.0" xmlns="http://www.w3.org/2000/svg"
 width="150.000000pt" height="148.000000pt" viewBox="0 0 150.000000 148.000000"
 preserveAspectRatio="xMidYMid meet">

<g transform="translate(0.000000,148.000000) scale(0.100000,-0.100000)"
fill="#000000" stroke="none">
<path d="M638 1347 c-20 -15 -44 -20 -100 -21 l-73 -1 1 -38 c1 -36 -2 -40
-40 -59 l-42 -20 -12 -81 -12 -81 31 -32 32 -33 -21 -35 c-20 -34 -20 -34 -1
-52 11 -10 30 -35 42 -57 17 -31 26 -38 45 -34 18 3 33 -7 70 -49 44 -51 51
-54 128 -72 l81 -19 84 63 c54 40 88 59 95 53 6 -4 43 -12 82 -15 62 -6 74
-10 88 -32 l17 -25 27 33 c25 31 26 36 15 64 -12 28 -11 33 17 69 31 38 31 38
14 79 -11 31 -13 45 -5 55 9 9 8 19 -4 36 -8 12 -18 37 -22 56 -6 27 -15 36
-45 48 -29 12 -43 26 -60 64 -21 45 -26 48 -64 51 -40 3 -41 4 -40 39 l1 36
-46 -9 c-25 -4 -50 -13 -55 -18 -19 -19 -34 -10 -40 25 l-7 34 -43 -21 -44
-21 -34 20 c-33 20 -34 20 -60 0z m48 -288 l49 -71 8 32 c8 33 7 34 74 -12 50
-34 51 -34 55 -5 2 18 9 22 36 20 41 -1 47 -6 34 -29 -8 -14 -5 -27 11 -54 20
-35 20 -37 2 -83 -15 -40 -31 -57 -105 -111 l-87 -64 -77 18 c-42 10 -78 19
-80 21 -1 2 -26 33 -55 68 -37 45 -50 68 -45 80 5 9 7 36 6 61 -1 26 4 51 12
60 8 8 19 34 25 57 8 29 21 47 44 61 17 11 35 21 38 21 4 1 29 -31 55 -70z"/>
<path d="M590 955 c0 -29 34 -36 44 -9 8 21 -1 34 -25 34 -14 0 -19 -7 -19
-25z"/>
<path d="M803 934 c-3 -8 -1 -20 5 -26 16 -16 42 -2 42 22 0 24 -38 28 -47 4z"/>
<path d="M765 839 c-36 -23 -83 -24 -113 -3 -21 15 -22 14 -22 -20 0 -37 36
-76 70 -76 26 0 62 32 88 79 26 45 22 49 -23 20z"/>
<path d="M875 727 c-26 -22 -29 -30 -26 -71 l3 -46 -81 0 c-62 0 -81 3 -81 14
0 9 -30 17 -105 26 l-106 12 26 34 26 34 -100 0 -101 0 -37 -51 -38 -50 -3 57
-3 57 -61 -7 c-34 -3 -70 -6 -81 -6 -19 0 -19 -5 -13 -157 4 -87 9 -186 12
-220 l6 -63 76 0 75 0 -6 63 -5 62 53 -58 53 -58 74 2 c99 3 110 6 97 31 -10
18 -7 18 43 12 29 -4 60 -13 68 -20 21 -18 215 -7 231 13 6 7 23 13 36 13 22
0 24 -2 13 -15 -7 -9 -10 -18 -7 -21 3 -3 41 -8 84 -11 l78 -5 23 41 c13 22
27 41 32 41 5 0 16 -20 26 -45 l17 -45 123 0 c68 0 124 2 124 5 0 3 -7 16 -16
30 -14 21 -14 26 1 54 l16 31 -71 0 -70 0 -20 40 c-11 21 -20 44 -20 50 0 6
29 54 65 108 l65 97 -87 8 c-94 9 -95 9 -129 -49 -10 -16 -14 -13 -38 29 -26
44 -31 47 -69 47 -23 0 -64 3 -92 6 -43 4 -54 2 -80 -19z m88 -29 c15 -23 1
-48 -28 -48 -14 0 -25 2 -25 4 0 2 -3 11 -6 19 -6 16 23 50 39 44 6 -2 15 -10
20 -19z m-457 -95 c-3 -16 -8 -57 -12 -92 -7 -70 -1 -81 47 -81 29 0 25 -11
45 135 6 42 9 45 35 45 33 0 33 3 18 -111 -6 -47 -18 -92 -27 -101 -19 -23
-98 -24 -149 -3 l-36 15 7 87 c9 124 13 133 48 133 27 0 29 -2 24 -27z m454
-13 c0 -15 -3 -68 -6 -118 l-7 -92 -30 0 -30 0 8 117 c3 65 8 121 11 124 2 3
15 4 29 1 19 -3 25 -10 25 -32z m-122 -16 c18 -13 23 -25 22 -62 0 -26 2 -65
5 -87 8 -61 -2 -69 -97 -76 -46 -3 -85 -4 -87 -2 -2 1 -6 54 -9 117 l-5 114
29 5 c67 10 120 6 142 -9z m481 -233 c-2 -30 -3 -31 -6 -8 -5 34 -23 36 -23 1
0 -30 -19 -22 -21 9 -1 20 -2 20 -6 2 -9 -38 -23 -40 -23 -3 0 36 1 37 40 36
40 0 40 -1 39 -37z m57 3 c0 -26 -3 -31 -13 -22 -9 7 -13 7 -13 -1 0 -6 -5
-11 -10 -11 -7 0 -8 6 -1 17 5 10 6 24 0 34 -7 13 -4 17 14 17 19 0 23 -6 23
-34z"/>
<path d="M730 515 c0 -22 4 -25 34 -25 38 0 49 10 40 34 -4 10 -18 16 -40 16
-30 0 -34 -3 -34 -25z"/>
<path d="M730 425 c0 -22 4 -25 40 -25 36 0 40 3 40 25 0 23 -4 25 -40 25 -36
0 -40 -2 -40 -25z"/>
<path d="M173 262 l-83 -3 -1 -32 c-2 -46 -2 -90 0 -104 1 -10 142 -13 671
-13 l670 0 0 75 0 75 -32 1 c-97 3 -1156 4 -1225 1z m644 -18 c-3 -3 5 -24 19
-45 13 -21 24 -43 24 -49 0 -13 -17 -13 -25 0 -8 14 -41 13 -65 -2 -30 -19
-34 -2 -9 39 13 21 24 41 25 46 1 4 2 9 3 12 0 3 9 5 18 5 9 0 14 -3 10 -6z
m-646 -36 l12 -23 10 23 c6 12 18 22 29 22 14 0 18 -8 18 -35 0 -19 0 -38 1
-42 0 -4 -4 -9 -10 -11 -6 -2 -11 9 -12 25 l-1 28 -11 -27 c-12 -32 -31 -36
-46 -10 -10 16 -10 16 -11 0 0 -10 -7 -18 -15 -18 -11 0 -15 12 -15 45 0 38 3
45 20 45 10 0 25 -10 31 -22z m184 -15 c29 -43 31 -53 10 -53 -8 0 -15 5 -15
10 0 6 -13 10 -30 10 -16 0 -30 -4 -30 -10 0 -5 -7 -10 -15 -10 -8 0 -15 4
-15 9 0 20 42 81 56 81 7 0 25 -17 39 -37z m120 27 c3 -5 -3 -10 -14 -10 -15
0 -20 -8 -23 -32 -4 -46 -28 -49 -28 -4 0 29 -4 36 -20 36 -11 0 -20 5 -20 10
0 6 22 10 49 10 28 0 53 -4 56 -10z m115 0 c0 -5 -16 -10 -35 -10 -44 0 -46
-19 -2 -22 l32 -1 -32 -4 c-44 -6 -42 -23 2 -23 19 0 35 -4 35 -10 0 -5 -22
-10 -50 -10 l-50 0 0 45 0 45 50 0 c28 0 50 -4 50 -10z m68 -17 l10 -28 11 28
c6 17 18 27 31 27 17 0 20 -6 20 -45 0 -33 -4 -45 -15 -45 -9 0 -15 9 -16 23
l0 22 -9 -22 c-13 -31 -36 -29 -48 5 l-10 27 -1 -28 c-1 -37 -25 -31 -29 7 -5
38 4 56 27 56 12 0 23 -10 29 -27z m317 17 c3 -5 -3 -10 -14 -10 -15 0 -20 -8
-23 -32 -4 -46 -28 -49 -28 -4 0 29 -4 36 -20 36 -11 0 -20 5 -20 10 0 6 22
10 49 10 28 0 53 -4 56 -10z m45 -35 c0 -33 -4 -45 -15 -45 -11 0 -15 12 -15
45 0 33 4 45 15 45 11 0 15 -12 15 -45z m114 39 c9 -3 16 -12 16 -20 0 -17 -5
-17 -29 -2 -22 14 -51 4 -51 -17 0 -21 29 -31 51 -17 24 16 29 15 29 -3 0 -19
-46 -30 -79 -19 -32 12 -41 52 -15 71 19 14 52 17 78 7z m129 -36 c21 -36 18
-63 -5 -40 -15 15 -55 16 -63 2 -9 -14 -25 -12 -25 3 0 24 41 78 56 75 9 -2
26 -20 37 -40z m125 25 c2 -9 -6 -11 -30 -8 l-33 5 35 -13 c63 -25 40 -65 -31
-55 -20 2 -24 9 -26 38 -1 19 4 38 10 42 18 12 70 5 75 -9z"/>
<path d="M795 190 c-3 -5 -1 -10 4 -10 6 0 11 5 11 10 0 6 -2 10 -4 10 -3 0
-8 -4 -11 -10z"/>
<path d="M310 190 c0 -5 5 -10 11 -10 5 0 7 5 4 10 -3 6 -8 10 -11 10 -2 0 -4
-4 -4 -10z"/>
<path d="M1215 190 c-3 -5 1 -10 10 -10 9 0 13 5 10 10 -3 6 -8 10 -10 10 -2
0 -7 -4 -10 -10z"/>
<path d="M1325 170 c3 -5 15 -10 26 -10 11 0 17 5 14 10 -3 6 -15 10 -26 10
-11 0 -17 -4 -14 -10z"/>
</g>
</svg>
